<svg xmlns="http://www.w3.org/2000/svg" version="1.0" width="250.000000" height="251.000000" preserveAspectRatio="xMidYMid meet"><rect id="backgroundrect" width="100%" height="100%" x="0" y="0" fill="none" stroke="none"/>
<metadata>
Created by potrace 1.13, written by Peter Selinger 2001-2015
</metadata>

<g class="currentLayer" style=""><title>Layer 1</title><g transform="translate(0,251) scale(0.10000000149011612,-0.10000000149011612) " fill="#ffffff" stroke="none" id="svg_1" class="selected" fill-opacity="1">
<path d="M0 1260 l0 -1250 1250 0 1250 0 0 1250 0 1250 -1250 0 -1250 0 0 -1250z m2410 0 l0 -1140 -1150 0 -1150 0 0 1140 0 1140 1150 0 1150 0 0 -1140z" id="svg_2" fill="#ffffff" fill-opacity="1"/>
<path d="M1207 2147 c-9 -18 -43 -107 -76 -198 -33 -90 -81 -220 -106 -289 -26 -69 -59 -161 -75 -205 -16 -44 -44 -123 -64 -175 -19 -52 -89 -242 -154 -423 -66 -180 -132 -347 -146 -372 -40 -67 -83 -95 -161 -105 -71 -9 -81 -13 -71 -29 5 -7 97 -10 269 -8 264 2 311 10 206 33 -66 15 -79 28 -79 80 0 43 53 230 71 249 6 6 78 -59 194 -175 l185 -185 195 195 c107 107 196 192 198 190 10 -13 117 -307 117 -322 0 -10 -9 -22 -21 -29 -16 -8 -18 -14 -10 -22 17 -17 473 -17 478 -1 2 7 -20 16 -58 23 -82 14 -126 45 -177 122 -49 76 -109 226 -477 1184 -30 77 -81 211 -114 297 -83 215 -94 230 -124 165z m6 -354 c5 -19 96 -278 195 -558 33 -93 79 -219 101 -280 l42 -109 -176 -176 -175 -175 -169 170 -169 170 162 487 c88 268 166 488 172 488 7 0 14 -8 17 -17z" id="svg_3" fill="#ffffff" fill-opacity="1"/>
</g></g></svg>